<?xml version="1.0" encoding="iso-8859-1"?>
<!-- Uploaded to: SVG Repo, www.svgrepo.com, Generator: SVG Repo Mixer Tools -->
<!DOCTYPE svg PUBLIC "-//W3C//DTD SVG 1.1//EN" "http://www.w3.org/Graphics/SVG/1.1/DTD/svg11.dtd">
<svg fill="#000000" version="1.1" id="Capa_1" xmlns="http://www.w3.org/2000/svg" xmlns:xlink="http://www.w3.org/1999/xlink" 
	 width="800px" height="800px" viewBox="0 0 31.677 31.676"
	 xml:space="preserve">
<g>
	<g>
		<circle cx="28.458" cy="5.438" r="3.219"/>
		<polygon points="24.419,27.628 24.396,27.841 24.21,27.821 23.105,27.927 22.991,28.919 23.907,29.026 24.997,28.976 
			24.988,29.153 26.17,29.292 26.3,28.185 26.312,28.067 26.336,27.876 26.352,27.878 27.33,23.405 25.329,23.262 		"/>
		<polygon points="31.452,27.735 31.432,27.6 31.441,27.597 30.382,23.755 30.173,18.991 30.527,18.942 30.527,9.132 27.363,9.132 
			25.93,9.132 26.025,14.517 27.298,9.462 27.613,9.567 29.605,10.07 29.826,10.125 29.771,10.346 27.662,18.704 27.607,18.923 
			27.387,18.868 27.333,18.844 27.327,19.053 29.23,19.143 28.961,23.481 28.35,23.456 29.545,28.04 29.361,28.069 28.328,28.471 
			28.486,29.458 29.396,29.312 30.432,28.966 30.469,29.139 31.646,28.952 31.473,27.854 		"/>
		<path d="M28.877,19.377l-1.83-0.107l0.037-0.746l0.284,0.074l2.071-8.229l-1.834-0.48l-1.498,5.818l0.002,0.087l-0.576,2.321
			l0.484,0.127l-0.444,0.164l-0.048,0.78l-2.058-0.146l-0.204,3.82l5.396,0.36L28.877,19.377z M26.596,19.151l-0.604-0.037
			l0.021-0.356l0.603,0.036L26.596,19.151z"/>
		<path d="M18.365,13.964h-2.39h-1.512v6.588H14.27v-6.588v-0.212h0.194h1.512v-5.74l-4.892-0.027v5.2h2.057h0.237v0.267v7.101
			h-0.237v-7.101H9.027v7.101H8.79v-7.101v-0.267h0.237h1.789c0-1.309,0-2.453,0-3.103c0-0.235,0-0.41,0-0.499V8.563H6.067v1.021
			c0,0.115,0,0.288,0,0.499c0,0.146,0,0.312,0,0.502h2.016h0.239v0.268v9.7H8.083v-9.7H6.067H3.334v2.844h1.604h0.239v0.269v6.588
			H4.938v-6.588H3.334H1.035v6.588H0v1.082h20.273v-1.082h-1.908V13.964z"/>
	</g>
</g>
</svg>